<svg version="1.1" xmlns="http://www.w3.org/2000/svg" viewBox="0 0 22.88 22.88">
	<g>
		<path 
		d="M 0.324,  1.909
			 c-0.429, -0.429 -0.429, -1.143  0,    -1.587
			 c 0.444, -0.429  1.143, -0.429  1.587, 0
			 l 9.523,  9.539 
			 l 9.539, -9.539
			 c 0.429, -0.429  1.143, -0.429  1.571, 0
			 c 0.444,  0.444  0.444,  1.159  0,     1.587
			 l-9.523,  9.524
			 l 9.523,  9.539 
			 c 0.444,  0.429  0.444,  1.143  0,     1.587
			 c-0.429,  0.429 -1.143,  0.429 -1.571, 0
			 l-9.539, -9.539
			 l-9.523,  9.539
			 c-0.444,  0.429 -1.143,  0.429 -1.587, 0	
			 c-0.429, -0.444 -0.429, -1.159  0,    -1.587
			 l 9.523, -9.539
			 L 0.324,  1.909z"	/>
	</g>
</svg>
